<svg id="svg" version="1.1" width="400" height="400" viewBox="0 0 400 400" xmlns="http://www.w3.org/2000/svg" xmlns:xlink="http://www.w3.org/1999/xlink" ><g id="svgg"><path id="path0" d="M186.667 157.667 L 186.667 239.333 199.449 239.333 C 206.479 239.333,213.604 239.236,215.282 239.117 L 218.333 238.900 218.333 157.450 L 218.333 76.000 202.500 76.000 L 186.667 76.000 186.667 157.667 M232.221 119.250 C 232.100 124.888,232.001 161.563,232.001 200.750 L 232.000 272.000 248.000 272.000 L 264.000 272.000 264.000 190.500 L 264.000 109.000 248.220 109.000 L 232.441 109.000 232.221 119.250 M147.333 317.167 L 147.333 332.333 149.333 332.333 L 151.333 332.333 151.333 317.167 L 151.333 302.000 149.333 302.000 L 147.333 302.000 147.333 317.167 M193.000 317.167 L 193.000 332.333 195.000 332.333 L 197.000 332.333 197.000 317.167 L 197.000 302.000 195.000 302.000 L 193.000 302.000 193.000 317.167 M203.333 317.167 L 203.333 332.333 205.333 332.333 L 207.333 332.333 207.333 317.167 L 207.333 302.000 205.333 302.000 L 203.333 302.000 203.333 317.167 M130.908 303.026 C 127.223 303.615,124.742 306.138,124.427 309.616 C 124.088 313.354,126.003 315.781,131.701 318.833 C 136.221 321.255,137.667 322.733,137.667 324.931 C 137.667 329.167,132.867 330.816,126.773 328.674 L 125.042 328.065 124.722 328.949 C 124.546 329.436,124.305 330.070,124.187 330.360 C 123.461 332.141,132.902 333.488,136.653 332.139 C 144.895 329.176,143.821 321.158,134.480 315.916 C 129.859 313.322,128.667 312.113,128.667 310.019 C 128.667 306.755,130.973 305.576,135.957 306.295 C 137.491 306.516,138.799 306.645,138.863 306.582 C 138.927 306.518,139.208 305.917,139.489 305.246 L 139.998 304.025 138.715 303.680 C 138.009 303.490,136.697 303.252,135.799 303.151 C 134.901 303.050,133.792 302.923,133.333 302.869 C 132.875 302.816,131.783 302.886,130.908 303.026 M218.592 303.018 C 216.993 303.160,215.230 303.376,214.675 303.498 L 213.667 303.720 213.667 318.026 L 213.667 332.333 215.833 332.333 L 218.000 332.333 218.000 319.375 L 218.000 306.417 219.042 306.208 C 227.929 304.431,232.829 314.707,224.205 317.038 C 221.754 317.700,221.041 318.054,220.502 318.876 C 219.654 320.171,220.137 320.427,223.127 320.270 C 230.734 319.868,235.129 313.818,232.069 307.961 C 229.976 303.954,225.703 302.387,218.592 303.018 M156.833 311.573 C 155.665 311.857,153.000 313.073,153.000 313.323 C 153.000 314.226,154.451 314.782,156.654 314.723 C 160.084 314.631,160.000 314.392,160.000 324.241 L 160.000 332.333 162.167 332.333 L 164.333 332.333 164.333 323.939 C 164.333 316.037,164.291 315.457,163.619 314.067 C 162.558 311.877,159.781 310.856,156.833 311.573 M176.058 311.968 C 167.789 314.824,167.716 328.444,175.949 332.086 C 178.166 333.066,184.320 332.634,186.311 331.358 C 187.161 330.813,186.170 328.199,185.227 328.498 C 180.750 329.915,179.097 329.928,177.034 328.562 C 172.389 325.488,173.389 315.481,178.437 314.534 C 180.888 314.074,183.329 316.094,183.332 318.583 L 183.333 319.667 180.811 319.667 C 178.141 319.667,177.191 319.970,176.257 321.122 C 175.067 322.592,175.311 322.667,181.318 322.667 L 186.970 322.667 187.191 321.489 C 188.526 314.372,182.936 309.593,176.058 311.968 M241.385 311.837 C 238.678 312.595,238.651 312.624,239.247 314.110 C 239.674 315.173,239.877 315.350,240.463 315.169 C 246.715 313.238,249.073 315.137,249.274 322.263 L 249.399 326.692 248.250 327.776 C 245.844 330.045,242.795 330.179,241.563 328.068 C 240.385 326.052,241.430 324.407,244.445 323.530 C 246.254 323.004,247.667 321.802,247.667 320.788 C 247.667 319.327,239.488 321.683,238.002 323.573 C 233.260 329.602,242.689 336.091,248.413 330.736 C 248.915 330.266,249.365 329.946,249.413 330.024 C 249.461 330.103,249.730 330.617,250.011 331.167 C 250.469 332.062,250.706 332.177,252.291 332.268 L 254.061 332.370 253.823 331.285 C 253.692 330.689,253.491 327.106,253.376 323.324 L 253.167 316.447 252.164 314.825 C 250.315 311.836,245.828 310.592,241.385 311.837 M257.008 311.735 C 257.066 312.469,264.336 331.486,264.544 331.449 C 266.612 331.084,265.785 324.594,262.406 314.667 L 261.442 311.833 259.221 311.735 C 257.999 311.681,257.004 311.681,257.008 311.735 M272.827 312.083 C 272.743 312.313,271.395 316.550,269.830 321.500 C 264.563 338.163,264.001 339.221,260.561 338.936 L 258.766 338.787 258.232 340.227 C 257.939 341.019,257.739 341.667,257.788 341.667 C 257.837 341.667,258.726 341.824,259.763 342.015 C 265.887 343.147,266.146 342.721,276.025 315.250 L 277.313 311.667 275.146 311.667 C 273.716 311.667,272.927 311.808,272.827 312.083 " stroke="none" fill="#4a3f89" fill-rule="evenodd"></path><path id="path1" d="M0.000 200.000 L 0.000 400.000 200.000 400.000 L 400.000 400.000 400.000 200.000 L 400.000 0.000 200.000 0.000 L 0.000 0.000 0.000 200.000 M173.584 125.417 L 173.668 207.000 171.334 207.000 L 169.000 207.000 169.000 213.833 L 169.000 220.667 153.167 220.667 L 137.333 220.667 137.333 139.167 L 137.333 57.667 139.500 57.667 L 141.667 57.667 141.667 50.663 L 141.667 43.660 157.583 43.747 L 173.500 43.833 173.584 125.417 M218.667 157.667 L 218.667 239.333 216.500 239.333 L 214.333 239.333 214.333 246.167 L 214.333 253.000 198.333 253.000 L 182.333 253.000 182.333 171.500 L 182.333 90.000 184.333 90.000 L 186.333 90.000 186.333 83.222 C 186.333 79.494,186.433 76.344,186.556 76.222 C 186.678 76.100,193.953 76.000,202.722 76.000 L 218.667 76.000 218.667 157.667 M264.000 190.333 L 264.000 272.000 261.833 272.000 L 259.667 272.000 259.667 278.833 L 259.667 285.667 243.667 285.667 L 227.667 285.667 227.667 204.167 L 227.667 122.667 229.833 122.667 L 232.000 122.667 232.000 115.667 L 232.000 108.667 248.000 108.667 L 264.000 108.667 264.000 190.333 M151.587 317.250 L 151.500 332.500 149.333 332.500 L 147.167 332.500 147.080 317.250 L 146.993 302.000 149.333 302.000 L 151.673 302.000 151.587 317.250 M197.333 317.349 L 197.333 332.697 195.083 332.599 L 192.833 332.500 192.747 317.250 L 192.660 302.000 194.997 302.000 L 197.333 302.000 197.333 317.349 M207.667 317.349 L 207.667 332.697 205.417 332.599 L 203.167 332.500 203.080 317.250 L 202.993 302.000 205.330 302.000 L 207.667 302.000 207.667 317.349 M137.146 303.168 C 140.041 303.781,140.163 303.912,139.470 305.644 C 138.995 306.831,138.796 307.019,138.203 306.836 C 137.816 306.717,136.061 306.536,134.302 306.434 L 131.105 306.249 129.969 307.264 C 127.110 309.819,128.573 312.472,134.759 315.952 C 143.716 320.989,145.091 327.976,137.853 331.667 C 134.253 333.502,124.000 332.885,124.000 330.832 C 124.000 330.422,124.933 327.996,125.088 328.004 C 125.131 328.007,126.118 328.307,127.280 328.671 C 137.129 331.758,141.746 324.301,132.870 319.640 C 126.593 316.344,124.614 314.287,124.393 310.831 C 123.993 304.545,129.116 301.467,137.146 303.168 M226.314 303.302 C 236.223 306.386,235.239 318.188,224.895 320.323 C 222.917 320.731,219.667 320.518,219.667 319.980 C 219.667 319.061,221.788 317.356,223.195 317.145 C 231.095 315.960,229.730 306.669,221.614 306.386 L 218.341 306.271 218.254 319.386 L 218.167 332.500 217.364 332.613 C 216.923 332.676,215.911 332.629,215.114 332.510 L 213.667 332.292 213.667 317.969 C 213.667 306.817,213.759 303.611,214.083 303.487 C 216.457 302.582,223.653 302.473,226.314 303.302 M161.832 311.975 C 164.408 313.421,164.745 315.047,164.601 325.333 L 164.500 332.500 162.250 332.599 L 160.000 332.697 159.995 324.599 C 159.989 314.621,160.045 314.796,156.898 314.924 C 153.139 315.077,151.728 313.525,154.507 312.296 C 157.474 310.984,159.878 310.878,161.832 311.975 M183.000 311.893 C 186.420 313.287,188.666 318.660,187.260 322.083 C 186.862 323.055,175.317 322.969,175.571 321.996 C 175.995 320.373,177.512 319.667,180.569 319.667 L 183.421 319.667 183.246 318.359 C 182.337 311.585,174.310 314.393,174.308 321.487 C 174.306 328.538,178.549 331.113,185.365 328.196 C 186.119 327.873,187.327 330.918,186.625 331.372 C 181.522 334.676,173.693 332.793,171.056 327.629 C 166.354 318.421,174.071 308.254,183.000 311.893 M249.167 311.965 C 252.775 313.636,253.393 315.331,253.676 324.333 C 253.800 328.275,253.962 331.725,254.034 332.000 C 254.350 333.194,251.154 332.824,250.136 331.548 L 249.216 330.396 248.025 331.337 C 243.592 334.837,236.692 332.232,236.672 327.050 C 236.658 323.362,239.374 321.335,245.647 320.353 C 248.195 319.954,248.173 319.941,247.548 321.437 C 247.004 322.737,246.396 323.153,243.986 323.868 C 240.383 324.938,240.423 329.333,244.036 329.333 C 248.021 329.333,249.000 327.956,248.999 322.354 C 248.997 315.309,247.209 313.612,241.382 315.124 C 239.474 315.619,239.116 315.341,238.902 313.190 C 238.737 311.532,246.286 310.631,249.167 311.965 M263.306 316.917 C 265.552 323.987,266.103 326.483,265.827 328.330 C 265.534 330.300,264.733 332.206,264.365 331.809 C 264.107 331.530,257.439 313.642,257.075 312.250 C 256.940 311.735,257.199 311.667,259.280 311.667 L 261.638 311.667 263.306 316.917 M277.333 311.880 C 277.333 312.140,270.031 332.308,268.841 335.333 C 266.783 340.568,264.451 342.527,260.606 342.252 C 257.765 342.048,257.524 341.845,258.114 340.146 C 258.570 338.835,258.573 338.833,260.380 338.833 C 264.020 338.833,264.254 338.412,269.217 322.901 L 272.811 311.667 275.072 311.667 C 276.316 311.667,277.333 311.763,277.333 311.880 " stroke="none" fill="#fbfbfc" fill-rule="evenodd"></path><path id="path2" d="M141.667 125.500 L 141.667 207.000 157.500 207.000 L 173.333 207.000 173.333 125.500 L 173.333 44.000 157.500 44.000 L 141.667 44.000 141.667 125.500 " stroke="none" fill="#6cecf4" fill-rule="evenodd"></path><path id="path3" d="M186.497 164.667 C 186.497 205.825,186.536 222.662,186.583 202.083 C 186.631 181.504,186.631 147.829,186.583 127.250 C 186.536 106.671,186.497 123.508,186.497 164.667 M232.000 115.667 L 232.000 122.667 230.000 122.667 L 228.000 122.667 228.000 204.167 L 228.000 285.667 243.833 285.667 L 259.667 285.667 259.667 278.833 L 259.667 272.000 245.833 272.000 L 232.000 272.000 232.001 200.750 C 232.001 161.563,232.100 124.889,232.221 119.253 L 232.441 109.006 248.304 108.917 L 264.167 108.827 248.083 108.747 L 232.000 108.667 232.000 115.667 M215.250 239.241 C 215.846 239.315,216.821 239.315,217.417 239.241 C 218.012 239.167,217.525 239.107,216.333 239.107 C 215.142 239.107,214.654 239.167,215.250 239.241 M147.154 317.167 C 147.154 325.600,147.197 329.002,147.250 324.727 C 147.303 320.452,147.302 313.552,147.250 309.394 C 147.197 305.236,147.154 308.733,147.154 317.167 M151.487 317.167 C 151.487 325.600,151.530 329.002,151.583 324.727 C 151.636 320.452,151.636 313.552,151.583 309.394 C 151.530 305.236,151.487 308.733,151.487 317.167 M197.154 317.167 C 197.154 325.600,197.197 329.002,197.250 324.727 C 197.303 320.452,197.302 313.552,197.250 309.394 C 197.197 305.236,197.154 308.733,197.154 317.167 M207.487 317.167 C 207.487 325.600,207.530 329.002,207.583 324.727 C 207.636 320.452,207.636 313.552,207.583 309.394 C 207.530 305.236,207.487 308.733,207.487 317.167 M133.417 302.896 C 133.737 302.980,134.262 302.980,134.583 302.896 C 134.904 302.813,134.642 302.744,134.000 302.744 C 133.358 302.744,133.096 302.813,133.417 302.896 M219.587 302.902 C 220.002 302.982,220.602 302.979,220.921 302.896 C 221.239 302.812,220.900 302.747,220.167 302.751 C 219.433 302.754,219.173 302.823,219.587 302.902 M219.750 306.230 C 220.071 306.314,220.596 306.314,220.917 306.230 C 221.237 306.146,220.975 306.077,220.333 306.077 C 219.692 306.077,219.429 306.146,219.750 306.230 M218.152 319.333 C 218.152 326.575,218.196 329.537,218.250 325.917 C 218.303 322.296,218.303 316.371,218.250 312.750 C 218.196 309.129,218.152 312.092,218.152 319.333 M164.477 324.500 C 164.477 328.900,164.525 330.654,164.582 328.398 C 164.640 326.141,164.640 322.541,164.582 320.398 C 164.524 318.254,164.477 320.100,164.477 324.500 M187.424 319.333 C 187.424 320.158,187.489 320.496,187.569 320.083 C 187.648 319.671,187.648 318.996,187.569 318.583 C 187.489 318.171,187.424 318.508,187.424 319.333 M249.128 322.667 C 249.128 324.958,249.182 325.896,249.247 324.750 C 249.312 323.604,249.312 321.729,249.247 320.583 C 249.182 319.438,249.128 320.375,249.128 322.667 M253.465 323.167 C 253.465 325.733,253.518 326.739,253.581 325.402 C 253.645 324.065,253.644 321.965,253.580 320.735 C 253.516 319.506,253.464 320.600,253.465 323.167 M222.083 320.563 C 222.404 320.647,222.929 320.647,223.250 320.563 C 223.571 320.479,223.308 320.411,222.667 320.411 C 222.025 320.411,221.762 320.479,222.083 320.563 M142.077 325.000 C 142.077 325.642,142.146 325.904,142.230 325.583 C 142.314 325.262,142.314 324.737,142.230 324.417 C 142.146 324.096,142.077 324.358,142.077 325.000 M179.583 329.569 C 179.996 329.648,180.671 329.648,181.083 329.569 C 181.496 329.489,181.158 329.424,180.333 329.424 C 179.508 329.424,179.171 329.489,179.583 329.569 M243.750 329.563 C 244.071 329.647,244.596 329.647,244.917 329.563 C 245.237 329.479,244.975 329.411,244.333 329.411 C 243.692 329.411,243.429 329.479,243.750 329.563 M179.088 332.906 C 179.595 332.982,180.345 332.980,180.755 332.901 C 181.165 332.822,180.750 332.760,179.833 332.762 C 178.917 332.765,178.581 332.829,179.088 332.906 M242.587 332.902 C 243.002 332.982,243.602 332.979,243.921 332.896 C 244.239 332.812,243.900 332.747,243.167 332.751 C 242.433 332.754,242.173 332.823,242.587 332.902 " stroke="none" fill="#a49cb4" fill-rule="evenodd"></path><path id="path4" d="M157.583 43.915 L 173.332 44.006 173.417 125.420 L 173.502 206.833 173.501 125.333 L 173.500 43.833 157.667 43.828 L 141.833 43.824 157.583 43.915 M137.333 139.167 L 137.333 220.667 153.167 220.667 L 169.000 220.667 169.000 213.833 L 169.000 207.000 155.333 207.000 L 141.667 207.000 141.667 132.333 L 141.667 57.667 139.500 57.667 L 137.333 57.667 137.333 139.167 M218.497 157.667 C 218.497 202.675,218.536 221.087,218.583 198.583 C 218.631 176.079,218.631 139.254,218.583 116.750 C 218.536 94.246,218.497 112.658,218.497 157.667 M186.333 83.167 L 186.333 90.000 184.333 90.000 L 182.333 90.000 182.333 171.500 L 182.333 253.000 198.333 253.000 L 214.333 253.000 214.333 246.167 L 214.333 239.333 200.309 239.333 L 186.284 239.333 186.392 157.833 C 186.451 113.008,186.463 76.333,186.417 76.333 C 186.371 76.333,186.333 79.408,186.333 83.167 M227.831 204.167 C 227.831 249.083,227.869 267.409,227.917 244.890 C 227.964 222.371,227.964 185.621,227.917 163.223 C 227.869 140.825,227.831 159.250,227.831 204.167 M192.833 317.250 L 192.833 332.500 195.000 332.523 L 197.167 332.546 195.087 332.424 L 193.007 332.303 192.920 317.152 L 192.833 302.000 192.833 317.250 M203.167 317.250 L 203.167 332.500 205.333 332.523 L 207.500 332.546 205.420 332.424 L 203.340 332.303 203.253 317.152 L 203.167 302.000 203.167 317.250 M252.500 332.333 L 250.833 332.562 252.397 332.614 C 253.257 332.643,254.053 332.517,254.167 332.333 C 254.280 332.150,254.326 332.024,254.270 332.052 C 254.213 332.081,253.417 332.208,252.500 332.333 M148.250 332.574 C 148.846 332.648,149.821 332.648,150.417 332.574 C 151.012 332.501,150.525 332.440,149.333 332.440 C 148.142 332.440,147.654 332.501,148.250 332.574 M160.909 332.574 C 161.501 332.648,162.551 332.649,163.243 332.577 C 163.934 332.504,163.450 332.444,162.167 332.443 C 160.883 332.441,160.317 332.500,160.909 332.574 M215.755 332.573 C 216.261 332.649,217.011 332.647,217.421 332.568 C 217.831 332.489,217.417 332.426,216.500 332.429 C 215.583 332.431,215.248 332.496,215.755 332.573 " stroke="none" fill="#b3d7f2" fill-rule="evenodd"></path></g></svg>