<?xml version="1.0" encoding="UTF-8" standalone="no"?>
<svg
   xmlns:dc="http://purl.org/dc/elements/1.1/"
   xmlns:cc="http://creativecommons.org/ns#"
   xmlns:rdf="http://www.w3.org/1999/02/22-rdf-syntax-ns#"
   xmlns:svg="http://www.w3.org/2000/svg"
   xmlns="http://www.w3.org/2000/svg"
   xmlns:sodipodi="http://sodipodi.sourceforge.net/DTD/sodipodi-0.dtd"
   xmlns:inkscape="http://www.inkscape.org/namespaces/inkscape"
   id="svg"
   version="1.1"
   width="400"
   height="400"
   viewBox="0 0 400 400"
   sodipodi:docname="shellpay2.svg"
   inkscape:version="0.92.2 2405546, 2018-03-11">
  <metadata
     id="metadata9">
    <rdf:RDF>
      <cc:Work
         rdf:about="">
        <dc:format>image/svg+xml</dc:format>
        <dc:type
           rdf:resource="http://purl.org/dc/dcmitype/StillImage" />
      </cc:Work>
    </rdf:RDF>
  </metadata>
  <defs
     id="defs7" />
  <sodipodi:namedview
     pagecolor="#ffffff"
     bordercolor="#666666"
     borderopacity="1"
     objecttolerance="10"
     gridtolerance="10"
     guidetolerance="10"
     inkscape:pageopacity="0"
     inkscape:pageshadow="2"
     inkscape:window-width="773"
     inkscape:window-height="480"
     id="namedview5"
     showgrid="false"
     inkscape:zoom="1.6672882"
     inkscape:cx="176.15745"
     inkscape:cy="175.21538"
     inkscape:window-x="0"
     inkscape:window-y="0"
     inkscape:window-maximized="0"
     inkscape:current-layer="svg" />
  <g
     id="svgg"
     transform="translate(-8.3968685,1.1995527)">
    <path
       id="path1"
       d="m 103.994,121.447 c -2.95,6.6 -2.354,6.063 -5.81,5.243 -1.597,-0.38 -2.949,-0.69 -3.005,-0.69 -0.055,0 -0.661,2.25 -1.346,5 -0.684,2.75 -1.34,4.997 -1.455,4.993 -0.116,-0.004 -2.161,-0.215 -4.545,-0.469 -2.383,-0.253 -4.379,-0.416 -4.435,-0.363 -0.072,0.07 -1.03,7.966 -1.061,8.756 C 82.335,143.962 75.508,144 67.165,144 H 51.998 l 0.084,44.031 0.085,44.031 32.275,13.777 c 17.751,7.576 32.466,13.849 32.699,13.938 0.282,0.109 1.243,-1.673 2.871,-5.326 2.895,-6.496 2.297,-5.973 5.863,-5.127 1.59,0.378 2.924,0.647 2.963,0.598 0.039,-0.049 0.576,-2.16 1.192,-4.691 0.617,-2.532 1.209,-4.745 1.316,-4.918 0.121,-0.195 1.899,-0.137 4.674,0.154 2.464,0.258 4.507,0.445 4.54,0.414 0.032,-0.031 0.229,-1.704 0.437,-3.718 0.208,-2.015 0.446,-4.001 0.53,-4.413 l 0.152,-0.75 h 15.162 15.161 l -0.084,-44.017 -0.085,-44.017 -29.666,-12.675 C 125.85,124.32 111.128,118.041 109.45,117.338 l -3.049,-1.278 -2.407,5.387 m 27.057,6.624 c 12.972,5.539 23.529,10.127 23.46,10.196 -0.104,0.104 -49.53,-11.354 -50.74,-11.763 -0.376,-0.127 3.09,-8.504 3.518,-8.504 0.097,0 10.79,4.532 23.762,10.071 m -9.634,5.672 c 13.521,3.166 24.438,5.805 24.261,5.864 -0.323,0.108 -50.77,-4.926 -50.929,-5.082 -0.227,-0.222 1.463,-6.523 1.751,-6.53 0.183,-0.005 11.396,2.582 24.917,5.748 m -9.084,6.758 c 13.659,1.74 25.059,3.221 25.334,3.292 0.275,0.071 -11.632,0.147 -26.46,0.168 l -26.96,0.039 0.239,-3.048 c 0.312,-3.993 0.334,-4.038 1.808,-3.805 0.663,0.105 12.381,1.615 26.039,3.354 m 57.585,47.416 -0.085,41.916 H 112 54.167 L 54.082,187.917 53.997,146 H 112 170.003 l -0.085,41.917 m 22.761,-31.526 c -2.72,0.781 -4.317,3.234 -3.881,5.961 0.402,2.518 1.819,3.779 5.989,5.33 2.742,1.02 3.946,2.169 3.946,3.766 0,3.936 -6.518,3.65 -7.262,-0.319 -0.212,-1.128 -0.26,-1.16 -1.595,-1.063 l -1.376,0.101 -0.095,3.25 -0.096,3.25 h 1.512 c 1.419,0 1.512,-0.056 1.512,-0.896 v -0.896 l 1.012,0.969 c 2.373,2.274 7.349,1.249 8.905,-1.833 1.96,-3.884 0.16,-7.176 -5.023,-9.185 -3.424,-1.328 -4.227,-1.959 -4.227,-3.325 0,-3.47 5.851,-3.33 6.548,0.157 0.188,0.94 0.302,1.009 1.673,1.009 h 1.471 l -0.096,-3.084 -0.096,-3.083 -1.417,-0.102 c -1.346,-0.098 -1.416,-0.058 -1.416,0.808 v 0.91 l -0.75,-0.702 c -1.439,-1.348 -3.026,-1.657 -5.238,-1.023 m 15.988,10.109 v 10.167 h 1.5 1.5 l 0.002,-3.75 c 0.002,-5.871 1.105,-8.069 4.047,-8.069 2.365,0 2.617,0.645 2.617,6.689 v 5.13 h 1.5 1.5 v -5.511 c 0,-4.042 -0.128,-5.817 -0.48,-6.659 -1.371,-3.284 -6.54,-3.334 -8.521,-0.083 l -0.663,1.086 -0.001,-4.583 -0.001,-4.584 h -1.5 -1.5 V 166.5 m 41,-8.667 v 1.5 h 1.673 1.673 l -0.09,7.25 -0.09,7.25 -1.583,0.102 -1.583,0.102 v 1.315 1.315 h 4.833 4.833 V 175.333 174 H 257.667 256 v -8.833 -8.834 h -3.167 -3.166 v 1.5 m 19.666,0 v 1.5 H 271 272.667 V 166.667 174 H 271 269.333 v 1.333 1.334 h 4.834 4.833 v -1.315 -1.315 l -1.583,-0.102 -1.584,-0.102 -0.089,-8.75 -0.088,-8.75 h -3.162 -3.161 v 1.5 m 18.25,-1.314 c -0.137,0.142 -0.25,4.734 -0.25,10.203 v 9.945 h 1.667 1.667 v -3.953 -3.952 l 3.083,-0.223 c 5.277,-0.383 7.285,-2.031 7.321,-6.007 0.04,-4.41 -2.119,-5.905 -8.847,-6.127 -2.415,-0.079 -4.503,-0.028 -4.641,0.114 m 9.613,3.916 c 2.221,2.582 0.502,5.011 -3.667,5.183 l -2.862,0.117 v -3.235 -3.235 l 2.862,0.117 c 2.654,0.109 2.921,0.186 3.667,1.053 m -65.696,2.179 c -8.985,4.279 -2.635,17.225 6.867,14.002 2.738,-0.929 3.294,-1.702 2.204,-3.064 l -0.759,-0.949 -1.323,0.781 c -2.813,1.662 -6.91,0.757 -7.772,-1.717 l -0.349,-1 h 6.179 6.178 l -0.219,-1.417 c -0.878,-5.68 -6.233,-8.908 -11.006,-6.636 m 78.227,0.02 c -0.976,0.337 -1.93,0.769 -2.12,0.959 -0.497,0.497 0.728,2.496 1.392,2.274 4.205,-1.411 6.078,-1.457 7.353,-0.182 1.442,1.442 0.908,1.982 -1.959,1.982 -5.808,0 -9.184,2.997 -7.612,6.758 1.265,3.029 6.879,3.581 9.523,0.938 L 317,174.667 v 1 c 0,0.963 0.056,1 1.5,1 h 1.5 l -10e-4,-5.584 c -0.001,-5.011 -0.07,-5.696 -0.674,-6.686 -1.388,-2.276 -5.777,-3.082 -9.598,-1.763 m 16.606,0.011 c 0,0.191 1.208,3.568 2.683,7.503 3.219,8.587 3.049,10.297 -0.961,9.655 -1.284,-0.205 -2.275,1.366 -1.575,2.498 0.703,1.137 5.166,0.55 6.547,-0.861 0.761,-0.779 6.232,-14.798 7.228,-18.523 0.134,-0.499 -0.087,-0.584 -1.526,-0.584 h -1.681 l -1.761,5.319 c -0.969,2.925 -1.842,5.24 -1.941,5.145 -0.099,-0.095 -1.016,-2.451 -2.039,-5.235 l -1.86,-5.062 -1.557,-0.102 c -0.924,-0.06 -1.557,0.04 -1.557,0.247 m -89.878,2.481 c 1.042,0.436 2.545,1.962 2.545,2.586 0,0.158 -1.875,0.288 -4.167,0.288 -2.727,0 -4.166,-0.123 -4.166,-0.355 0,-1.974 3.474,-3.485 5.788,-2.519 M 317,170.818 c 0,2.485 -4.441,4.504 -6.592,2.996 -1.265,-0.886 -0.77,-2.621 0.925,-3.244 1.198,-0.44 5.667,-0.245 5.667,0.248 m -177.475,63.765 c -0.38,4.457 -0.396,4.495 -1.807,4.273 -0.67,-0.105 -12.468,-1.619 -26.218,-3.363 -13.75,-1.745 -25.225,-3.227 -25.5,-3.294 -0.275,-0.067 11.705,-0.139 26.622,-0.16 l 27.123,-0.039 -0.22,2.583 m -35.401,4.281 c 13.773,1.392 25.084,2.571 25.134,2.619 0.233,0.225 -1.459,6.282 -1.79,6.409 -0.301,0.115 -48.118,-10.919 -49.301,-11.377 -0.836,-0.324 2.467,-0.025 25.957,2.349 m -8.657,4.803 c 13.674,3.208 24.863,5.983 24.865,6.166 0.008,1.056 -3.524,8.193 -3.989,8.059 -0.817,-0.235 -46.812,-19.916 -47.003,-20.112 -0.298,-0.305 0.66,-0.089 26.127,5.887"
       inkscape:connector-curvature="0"
       style="fill:#696969;fill-rule:evenodd;stroke:none"
       sodipodi:nodetypes="ccscccccscccccccsccccccccccccccccscscccccccscccccccccccccccccscccccssccccscsccccsccccccccsscccscccccccccccccccccccccccccccccccccccccccccccccccccccsccccccccccccccccccccccccccccscsscccssccccccccccsccscccccsssccccccccszcccccccccccc" />
  </g>
  <path
     class="cls-3"
     d="m 74.303022,190.78572 a 1.3143089,1.3101984 0 0 1 -1.138333,-0.65514 l -2.41999,-4.17846 a 1.3143963,1.3102855 0 0 1 0,-1.31028 l 2.41999,-4.17845 a 1.3143089,1.3101984 0 0 1 1.138333,-0.65514 h 4.93669 a 1.3143089,1.3101984 0 0 1 1.138333,0.65514 l 2.41999,4.17845 a 1.3143963,1.3102855 0 0 1 0,1.31028 l -2.41999,4.17846 a 1.3143089,1.3101984 0 0 1 -1.138333,0.65514 z"
     id="svg_3-7"
     stroke="null"
     inkscape:connector-curvature="0"
     style="fill:#696969;stroke-width:0.67604399" />
  <path
     class="cls-3"
     d="m 67.709222,184.20529 a 1.3143042,1.3101937 0 0 0 1.138331,-0.65514 l 2.419991,-4.17846 a 1.3143963,1.3102855 0 0 0 0,-1.31029 l -3.018041,-5.21107 -5.8859,3.20311 a 1.3155521,1.3114377 0 0 0 -0.684472,1.17912 36.936148,36.82063 0 0 0 0.818181,6.97273 z"
     id="svg_5-5"
     stroke="null"
     inkscape:connector-curvature="0"
     style="fill:#696969;stroke-width:0.67604399" />
  <path
     class="cls-3"
     d="m 85.833511,184.20529 a 1.3142771,1.3101667 0 0 1 -1.138321,-0.65514 l -2.42,-4.17846 a 1.3144457,1.3103348 0 0 1 0,-1.31029 l 3.01804,-5.21107 5.885803,3.20311 a 1.3158798,1.3117644 0 0 1 0.68459,1.17912 36.954886,36.83931 0 0 1 -0.81819,6.97273 z"
     id="svg_6-3"
     stroke="null"
     inkscape:connector-curvature="0"
     style="fill:#696969;stroke-width:0.67604399" />
  <path
     class="cls-3"
     d="m 77.400969,168.55544 a 1.3146475,1.3105359 0 0 0 -1.25963,0 l -5.968808,3.2482 2.99195,5.16597 a 1.3142947,1.3101843 0 0 0 1.138333,0.65514 h 4.936689 a 1.3142873,1.3101768 0 0 0 1.138322,-0.65514 l 2.99195,-5.16597 z"
     id="svg_7-5"
     stroke="null"
     inkscape:connector-curvature="0"
     style="fill:#696969;stroke-width:0.67604399" />
  <path
     class="cls-3"
     d="m 63.040583,186.3891 a 36.707589,36.592786 0 0 0 5.32198,11.1594 l 2.904871,-5.01551 a 1.3143963,1.3102855 0 0 0 0,-1.31029 l -2.41999,-4.17845 a 1.3143042,1.3101937 0 0 0 -1.138331,-0.65515 z"
     id="svg_8-6"
     stroke="null"
     inkscape:connector-curvature="0"
     style="fill:#696969;stroke-width:0.67604399" />
  <path
     class="cls-3"
     d="m 90.501933,186.3891 a 36.707508,36.592705 0 0 1 -5.322081,11.1594 l -2.904773,-5.01551 a 1.3144457,1.3103348 0 0 1 0,-1.31029 l 2.420001,-4.17845 a 1.3142507,1.3101404 0 0 1 1.138221,-0.65515 z"
     id="svg_9-2"
     stroke="null"
     inkscape:connector-curvature="0"
     style="fill:#696969;stroke-width:0.67604399" />
  <path
     class="cls-3"
     d="m 74.302813,192.96953 a 1.3142683,1.3101579 0 0 0 -1.138234,0.65514 l -3.370594,5.81963 a 37.091006,36.975004 0 0 0 6.171716,6.04428 1.3142582,1.3101478 0 0 0 1.610269,6.7e-4 37.094206,36.978194 0 0 0 6.172571,-6.04514 l -3.370606,-5.81963 a 1.3142507,1.3101404 0 0 0 -1.138223,-0.65514 z"
     id="svg_10-9"
     stroke="null"
     inkscape:connector-curvature="0"
     style="fill:#696969;stroke-width:0.67604399" />
</svg>
